<svg width="24" height="24" viewBox="0 0 24 24" fill="none" xmlns="http://www.w3.org/2000/svg">
<g clip-path="url(#clip0_132_1971)">
<path d="M6.18741 7.82606L4.56366 8.17106L4.55616 13.5111C4.55616 14.4973 5.29866 15.1348 6.28491 15.1348C6.83241 15.1348 7.23366 15.0336 7.45491 14.9136V13.6461C7.24116 13.7323 6.19116 14.0398 6.19116 13.0573V10.6873H7.45491V9.2698H6.19116L6.18741 7.82606ZM9.52866 9.76106L9.42741 9.2698H7.98741V15.0148H9.64866V11.1486C10.0424 10.6311 10.7062 10.7323 10.9199 10.7998V9.2698C10.6949 9.19105 9.91866 9.04481 9.52866 9.76106ZM12.9899 7.0498L11.3174 7.40606V8.76356L12.9899 8.40731V7.0498ZM1.68366 10.9611C1.68366 10.7023 1.90116 10.6011 2.24991 10.5973C2.75616 10.5973 3.40116 10.7511 3.90741 11.0248V9.4573C3.38051 9.25174 2.81922 9.14864 2.25366 9.15356C0.903662 9.15356 0.00366211 9.85856 0.00366211 11.0361C0.00366211 12.8811 2.53491 12.5811 2.53491 13.3761C2.53491 13.6836 2.26866 13.7848 1.89741 13.7848C1.34616 13.7848 0.633662 13.5561 0.0749121 13.2523V14.7523C0.693662 15.0186 1.31991 15.1311 1.89366 15.1311C3.27741 15.1311 4.22991 14.5386 4.22991 13.3386C4.22991 11.3548 1.68366 11.7111 1.68366 10.9611ZM23.9999 12.2098C23.9999 10.5036 23.1749 9.15731 21.5924 9.15731C20.0099 9.15731 19.0462 10.5036 19.0462 12.1986C19.0462 14.2048 20.1824 15.1311 21.8024 15.1311C22.5974 15.1311 23.1937 14.9511 23.6474 14.6998V13.4473C23.1937 13.6761 22.6724 13.8148 22.0124 13.8148C21.3637 13.8148 20.7937 13.5861 20.7187 12.8061H23.9774C23.9849 12.7198 23.9999 12.3711 23.9999 12.2098ZM20.7037 11.5798C20.7037 10.8298 21.1649 10.5148 21.5812 10.5148C21.9899 10.5148 22.4249 10.8298 22.4249 11.5798H20.7037ZM16.4699 9.15731C15.8174 9.15731 15.3974 9.4648 15.1649 9.67855L15.0787 9.26605H13.6124V16.9461L15.2774 16.5936L15.2812 14.7111C15.5212 14.8873 15.8774 15.1311 16.4587 15.1311C17.6512 15.1311 18.7387 14.2611 18.7387 12.1461C18.7424 10.2111 17.6399 9.15731 16.4699 9.15731ZM16.0724 13.7511C15.6824 13.7511 15.4499 13.6086 15.2887 13.4361L15.2774 10.9611C15.4499 10.7698 15.6899 10.6311 16.0724 10.6311C16.6799 10.6311 17.0999 11.3136 17.0999 12.1836C17.1037 13.0798 16.6912 13.7511 16.0724 13.7511ZM11.3212 15.0148H12.9937V9.2698H11.3212V15.0148Z" fill="#00162E"/>
</g>
<defs>
<clipPath id="clip0_132_1971">
<rect width="24" height="24" fill="white"/>
</clipPath>
</defs>
</svg>
